#!OML:ASF F:\VICON\USERDATA\INSTALL\rory3\rory3.ASF
:FULLY-SPECIFIED
:DEGREES
106
root 0.8503432352719493 17.89108988934033 41.05165855901712 1.2708357792095772 1.5955029097350475 -0.6066458185126828
lfemur -17.719564483200646 1.5421420815938263 -22.08906901354116
ltibia 37.94129909162345
lfoot 5.201364963275694 -10.658301540036435
ltoes -6.026853006128145
rfemur -12.099710022045505 3.634827967225635 27.392333478857815
rtibia 57.28126981369074
rfoot -0.4603080775492531 -5.361039240401389
rtoes 2.1418859250776583
lowerback 12.361984778902691 1.0272547715888323 1.7784507889181325
upperback -0.7397161742450702 2.5185557951507342 0.8928182385521976
thorax -8.171103809861037 1.4382138032591776 -0.28257253499960483
lowerneck -19.717216997026103 -4.177603306028871 -1.9095930742025073
upperneck 10.0559997251808 -5.346983873840123 3.3826449878081397
head 6.333223544939542 -2.469519003806895 0.7950815151361778
lclavicle 4.287488207731266e-15 5.75886165290891e-17
lhumerus -51.10430703921919 -11.234711716305359 96.25342178990272
lradius 109.57716557364688
lwrist 28.80733906681316
lhand -29.362700819957105 2.859772518199751
lfingers 7.125019999999998
lthumb -3.0102479121002315 32.6209393849107
rclavicle 4.28752700038245e-15 5.761646213958064e-17
rhumerus -39.42049611160924 16.279932947629813 -98.99571701793101
rradius 105.47885357596213
rwrist -9.586987458785677
rhand -20.423123772845347 36.283620058172275
rfingers 7.125019999999998
rthumb 5.9532854597101625 6.469192035934044
107
root 0.8066507081863621 17.78232920304164 40.22111876582642 1.0549981913574649 1.5258162473178674 -0.4007051739073084
lfemur -17.730431987338612 1.5113439372416402 -22.38060885145622
ltibia 37.97480490092474
lfoot 5.973022005374964 -10.117184403957577
ltoes -6.591218046754411
rfemur -16.047924767598406 2.980175339592624 25.703010400905985
rtibia 58.27824091218056
rfoot -0.770676248177433 -5.530248082882006
rtoes 2.399337292090025
lowerback 12.530621252231034 0.9928527262427238 1.4470834858993715
upperback -0.6798061493512769 2.244393983536976 0.8267055656316059
thorax -8.251138107267023 1.3012183132063397 -0.16882956231028118
lowerneck -19.838994422178242 -4.149244274544897 -1.9179016175124641
upperneck 10.119893023282176 -5.2442201893135305 3.3654191476197073
head 6.371555891555074 -2.4377355000824936 0.8035151890635996
lclavicle 4.287488207731266e-15 5.75886165290891e-17
lhumerus -50.17680717085053 -11.776626114892773 96.21310115553682
lradius 109.68593005336791
lwrist 28.715368568504406
lhand -29.414968433722688 2.7915194572368587
lfingers 7.125019999999998
lthumb -3.0001345297749094 32.54382173723307
rclavicle 4.28752700038245e-15 5.761646213958064e-17
rhumerus -40.09345666073308 16.173471775210846 -99.24274545100754
rradius 105.35055140421676
rwrist -9.588885334731568
rhand -20.382623535918185 36.31446814730692
rfingers 7.125019999999998
rthumb 5.958767852097787 6.469864742462462
108
root 0.8010949078139974 17.741169128428297 41.37571595340259 1.065623690381666 1.8152234779496381 0.009064675647385778
lfemur -17.752798398234308 1.3766481015313887 -22.742970289020306
ltibia 37.48407587478622
lfoot 5.639439279465074 -10.129806262339391
ltoes -6.863085989022353
rfemur -15.278959615656833 3.3957302735222896 26.250232381690207
rtibia 59.048878353374334
rfoot -1.0568918503897085 -5.901650962686393
rtoes 1.742987593008515
lowerback 12.662015473028063 0.8995934874624731 0.9799534345029564
upperback -0.6313307260838408 1.8954331659490484 0.752168292504086
thorax -8.226779114750924 1.2795371694353157 0.2426119933994817
lowerneck -19.939949575662247 -4.11041123785401 -1.9258976884893082
upperneck 10.114451877447546 -5.174557883312212 3.291565594157671
head 6.3901321632630514 -2.4030727542561388 0.8074722290278935
lclavicle 4.287488207731266e-15 5.75886165290891e-17
lhumerus -50.6339808346794 -12.366874728726529 95.9868238669277
lradius 109.6306387433282
lwrist 28.71581162565413
lhand -29.480563236081764 2.698408322481859
lfingers 7.125019999999998
lthumb -3.0392133757660273 32.5085575179519
rclavicle 4.28752700038245e-15 5.761646213958064e-17
rhumerus -40.77172761777365 16.023545125129065 -99.46985806856719
rradius 105.23418655102266
rwrist -9.540156780537774
rhand -20.321331078993705 36.35054788043281
rfingers 7.125019999999998
rthumb 5.8513728592036145 6.286533159863107
109
root 0.7746825714095698 17.675816894185104 40.56116324733202 1.026976111528151 1.7279039877604006 0.19798489296644783
lfemur -16.17022931813886 1.523835228367594 -22.609923010274265
ltibia 36.89908687248512
lfoot 4.640122807727141 -10.531195935023971
ltoes -6.986545820017217
rfemur -18.568410589507856 3.0008662440200866 24.97051264610607
rtibia 59.236132565588704
rfoot -1.6043630715014783 -6.391262625526982
rtoes 2.476825895980374
lowerback 12.818503695114043 0.8089950094913961 0.585062094233525
upperback -0.5621498030661339 1.620495837156908 0.7320249661153053
thorax -8.247445522644123 1.2149064971463355 0.5761617263132398
lowerneck -19.948493085678756 -4.016440911634008 -1.90417336578448
upperneck 10.161807365498426 -5.071138937610495 3.2534081817723277
head 6.413580734102576 -2.36965968155533 0.8069493710363583
lclavicle 4.287488207731266e-15 5.75886165290891e-17
lhumerus -49.79239871793074 -12.669093418276667 96.02312198441203
lradius 109.81468900121753
lwrist 28.56368369613544
lhand -29.344281931545254 2.747493956135178
lfingers 7.125019999999998
lthumb -3.1164520480201525 32.37629148982783
rclavicle 4.28752700038245e-15 5.761646213958064e-17
rhumerus -41.63865638720544 15.796116403562387 -99.73425067656399
rradius 105.09242478838914
rwrist -9.3699372742586
rhand -20.28576022895258 36.371735556477
rfingers 7.125019999999998
rthumb 5.822076361713201 6.192432177671153
110
root 0.762818757928935 17.62893206540437 40.47765726040612 1.0479669252057748 1.8066631986835286 0.3618267467266034
lfemur -16.535188757948696 1.113114442125178 -23.437641751375423
ltibia 36.41803482551849
lfoot 4.894839214257114 -10.53413927278923
ltoes -6.644891674924599
rfemur -19.102568738453684 3.2984079182013213 25.369591390427445
rtibia 59.029769596707006
rfoot -1.216263408984556 -6.50888571483703
rtoes 1.8292545225451349
lowerback 12.960251156981393 0.7082948008168337 0.26145196178741215
upperback -0.5075435645491055 1.3988229168662536 0.7204979081282222
thorax -8.303100645303141 1.1050961329750537 0.7745129333860502
lowerneck -19.888506864572324 -3.897317504066056 -1.8872037833569135
upperneck 10.094165851606741 -5.096041746650301 3.1222121015693283
head 6.411581527941058 -2.3518893007546406 0.8022066441131107
lclavicle 4.287488207731266e-15 5.75886165290891e-17
lhumerus -50.14207997762559 -13.113609046890286 95.86328475589005
lradius 109.79979641063233
lwrist 28.58076418658205
lhand -29.341668413392906 2.702420550243207
lfingers 7.125019999999998
lthumb -3.144336957966542 32.31750715971244
rclavicle 4.28752700038245e-15 5.761646213958064e-17
rhumerus -42.51921302562445 15.536298778864657 -99.98098140678063
rradius 105.01042068609341
rwrist -9.265996471416646
rhand -20.33672987905216 36.32678722135961
rfingers 7.125019999999998
rthumb 5.962885459587849 6.2917390885658575
111
root 0.7480493132747633 17.588006553782535 39.70580767401743 1.1005139793335337 1.660039410489703 0.3883561940891984
lfemur -14.795706399973811 1.284740890567984 -23.128309293111677
ltibia 36.036249148239165
lfoot 5.387356016468389 -10.3113153911821
ltoes -6.318963752434871
rfemur -19.926010207475343 3.2733280943609184 25.401020907454566
rtibia 58.5335292500329
rfoot -1.7068923338947481 -6.582373917865234
rtoes 1.3112498099737118
lowerback 13.094976576087138 0.6138151863203939 0.043001507527165916
upperback -0.509935975695594 1.138611112352036 0.7011241576692929
thorax -8.298229395048185 1.018792640192126 1.040519341590691
lowerneck -19.828156125208817 -3.780816802621847 -1.8778022254066895
upperneck 10.322866512687868 -4.9957021515159745 3.126510492099624
head 6.408936284564338 -2.338737277945681 0.8043275883521204
lclavicle 4.287488207731266e-15 5.75886165290891e-17
lhumerus -49.1986555705389 -13.237653075584298 96.01666810621803
lradius 109.78357142016417
lwrist 28.684375327164677
lhand -29.36641854901049 2.5962080232876534
lfingers 7.125019999999998
lthumb -3.2039113351143844 32.206031484690406
rclavicle 4.28752700038245e-15 5.761646213958064e-17
rhumerus -43.29774646687208 15.296374960808679 -100.16639508099148
rradius 105.01603107007017
rwrist -9.289706023402209
rhand -20.374571472189533 36.3216795049272
rfingers 7.125019999999998
rthumb 5.863589763465436 6.152481248599154
112
root 0.7743081814609254 17.619221209617837 41.31770140830795 1.3147110794479073 1.921380199769866 0.6517339859525739
lfemur -14.31651061339247 1.142112403113812 -23.546808536530136
ltibia 36.437747262547326
lfoot 6.382237589788722 -10.045636937202802
ltoes -5.785309530830504
rfemur -21.975986643548367 3.212955384578662 25.284177164188637
rtibia 57.96716082417578
rfoot -2.1687134958489045 -6.433844434635671
rtoes 0.4394345459442608
lowerback 13.186819064791827 0.5127191622445797 -0.151500593796287
upperback -0.5655783533106823 0.8107997096965065 0.672715932908674
thorax -8.321400075382591 0.9226379856949163 1.265140999663382
lowerneck -19.891004398819057 -3.7653578366981133 -1.9055026531963815
upperneck 10.348814103593616 -5.0286980565093105 3.028984433326468
head 6.45184985526113 -2.28709328321586 0.8263634810425554
lclavicle 4.287488207731266e-15 5.75886165290891e-17
lhumerus -48.84649548855784 -13.491212450717722 95.93398279011805
lradius 109.71568648020256
lwrist 28.800326583816386
lhand -29.289131746902903 2.571917284562356
lfingers 7.125019999999998
lthumb -3.2438136091829044 32.241197795848535
rclavicle 4.28752700038245e-15 5.761646213958064e-17
rhumerus -44.064865407794464 15.06912900402062 -100.30740425614512
rradius 105.15251268565837
rwrist -9.466877347454243
rhand -20.419746164884092 36.3104392851267
rfingers 7.125019999999998
rthumb 5.863863412489335 6.061309686126785
113
root 0.7411155086092953 17.571214614708346 38.53839510683151 1.2943846958620706 1.3279676495971133 0.324018519057081
lfemur -13.96423633195678 1.1407637137472424 -23.62962246910888
ltibia 37.51311983079838
lfoot 7.098626306987703 -9.92319890435511
ltoes -5.144199706922023
rfemur -22.77504552010075 3.300574180429416 25.281537734790913
rtibia 57.28330708876191
rfoot -2.549875397088928 -6.246206767491795
rtoes -0.6047760788604881
lowerback 13.248774964192199 0.4339464733952726 -0.2917576772924
upperback -0.6315392645607192 0.4999687290838819 0.7037563999350285
thorax -8.350809490091237 0.7843364148297272 1.4062756000083458
lowerneck -19.935175285575376 -3.694886933863878 -1.8730571290501585
upperneck 10.49967092312991 -4.956190724104198 3.043496588532696
head 6.461910533286217 -2.251221146015031 0.8337696839000178
lclavicle 4.287488207731266e-15 5.75886165290891e-17
lhumerus -47.050381766429865 -13.36622719760991 96.05895645328496
lradius 109.97932164189838
lwrist 28.725456160402494
lhand -29.3535214720196 2.44223468324994
lfingers 7.125019999999998
lthumb -3.2567801251028645 32.27137628582509
rclavicle 4.28752700038245e-15 5.761646213958064e-17
rhumerus -44.679483869772874 14.88892958486891 -100.35459538815873
rradius 105.31832593545056
rwrist -9.702955782676126
rhand -20.361123849106402 36.390816823215815
rfingers 7.125019999999998
rthumb 5.814149503762606 6.002725619002194
